<svg width="32" height="33" viewBox="0 0 32 33" fill="none" xmlns="http://www.w3.org/2000/svg">
<rect y="0.552734" width="31.5957" height="31.5957" rx="7.02128" fill="white" fill-opacity="0.2"/>
<g clip-path="url(#clip0_59_6413)">
<path d="M20.4051 11.085H11.1897C10.3171 11.086 9.48057 11.4331 8.86357 12.0501C8.24657 12.6671 7.89948 13.5036 7.89844 14.3762V18.3257C7.89948 19.1982 8.24657 20.0347 8.86357 20.6517C9.48057 21.2687 10.3171 21.6158 11.1897 21.6169H20.4051C21.2777 21.6158 22.1142 21.2687 22.7312 20.6517C23.3482 20.0347 23.6953 19.1982 23.6963 18.3257V14.3762C23.6953 13.5036 23.3482 12.6671 22.7312 12.0501C22.1142 11.4331 21.2777 11.086 20.4051 11.085ZM10.5314 19.6421C10.4012 19.6421 10.274 19.6035 10.1657 19.5312C10.0575 19.4589 9.9731 19.3561 9.92328 19.2358C9.87346 19.1155 9.86042 18.9832 9.88582 18.8555C9.91122 18.7278 9.97391 18.6105 10.066 18.5184C10.158 18.4264 10.2753 18.3637 10.403 18.3383C10.5307 18.3129 10.663 18.3259 10.7833 18.3758C10.9036 18.4256 11.0064 18.5099 11.0787 18.6182C11.1511 18.7264 11.1897 18.8537 11.1897 18.9839C11.1897 19.1585 11.1203 19.3259 10.9969 19.4493C10.8734 19.5728 10.706 19.6421 10.5314 19.6421ZM10.5314 14.3762C10.4012 14.3762 10.274 14.3376 10.1657 14.2652C10.0575 14.1929 9.9731 14.0901 9.92328 13.9698C9.87346 13.8496 9.86042 13.7172 9.88582 13.5895C9.91122 13.4618 9.97391 13.3445 10.066 13.2525C10.158 13.1604 10.2753 13.0977 10.403 13.0723C10.5307 13.0469 10.663 13.06 10.7833 13.1098C10.9036 13.1596 11.0064 13.244 11.0787 13.3522C11.1511 13.4605 11.1897 13.5878 11.1897 13.7179C11.1897 13.8925 11.1203 14.0599 10.9969 14.1834C10.8734 14.3068 10.706 14.3762 10.5314 14.3762ZM15.7974 18.9839C15.2766 18.9839 14.7676 18.8295 14.3346 18.5402C13.9016 18.2508 13.5641 17.8396 13.3648 17.3585C13.1655 16.8774 13.1134 16.348 13.215 15.8372C13.3166 15.3265 13.5673 14.8573 13.9356 14.4891C14.3038 14.1209 14.773 13.8701 15.2837 13.7685C15.7945 13.6669 16.3239 13.7191 16.805 13.9184C17.2861 14.1176 17.6973 14.4551 17.9866 14.8881C18.2759 15.3211 18.4304 15.8302 18.4304 16.3509C18.4304 17.0492 18.153 17.7189 17.6592 18.2127C17.1654 18.7065 16.4957 18.9839 15.7974 18.9839ZM21.0633 19.6421C20.9331 19.6421 20.8059 19.6035 20.6976 19.5312C20.5894 19.4589 20.505 19.3561 20.4552 19.2358C20.4054 19.1155 20.3923 18.9832 20.4177 18.8555C20.4431 18.7278 20.5058 18.6105 20.5979 18.5184C20.6899 18.4264 20.8072 18.3637 20.9349 18.3383C21.0626 18.3129 21.195 18.3259 21.3152 18.3758C21.4355 18.4256 21.5383 18.5099 21.6106 18.6182C21.683 18.7264 21.7216 18.8537 21.7216 18.9839C21.7216 19.1585 21.6522 19.3259 21.5288 19.4493C21.4053 19.5728 21.2379 19.6421 21.0633 19.6421ZM21.0633 14.3762C20.9331 14.3762 20.8059 14.3376 20.6976 14.2652C20.5894 14.1929 20.505 14.0901 20.4552 13.9698C20.4054 13.8496 20.3923 13.7172 20.4177 13.5895C20.4431 13.4618 20.5058 13.3445 20.5979 13.2525C20.6899 13.1604 20.8072 13.0977 20.9349 13.0723C21.0626 13.0469 21.195 13.06 21.3152 13.1098C21.4355 13.1596 21.5383 13.244 21.6106 13.3522C21.683 13.4605 21.7216 13.5878 21.7216 13.7179C21.7216 13.8925 21.6522 14.0599 21.5288 14.1834C21.4053 14.3068 21.2379 14.3762 21.0633 14.3762ZM17.1139 16.3509C17.1139 16.6113 17.0367 16.8658 16.892 17.0823C16.7473 17.2988 16.5417 17.4676 16.3012 17.5672C16.0606 17.6668 15.7959 17.6929 15.5405 17.6421C15.2852 17.5913 15.0506 17.4659 14.8665 17.2818C14.6824 17.0977 14.557 16.8631 14.5062 16.6078C14.4554 16.3524 14.4815 16.0877 14.5811 15.8471C14.6807 15.6066 14.8495 15.401 15.066 15.2563C15.2825 15.1116 15.537 15.0344 15.7974 15.0344C16.1465 15.0344 16.4814 15.1731 16.7283 15.42C16.9752 15.6669 17.1139 16.0018 17.1139 16.3509Z" fill="white"/>
</g>
<defs>
<clipPath id="clip0_59_6413">
<rect width="15.7979" height="15.7979" fill="white" transform="translate(7.89844 8.45215)"/>
</clipPath>
</defs>
</svg>
