<svg width="33" height="33" viewBox="0 0 33 33" fill="none" xmlns="http://www.w3.org/2000/svg">
<rect x="0.554688" y="0.552734" width="31.5957" height="31.5957" rx="7.02128" fill="white" fill-opacity="0.2"/>
<g clip-path="url(#clip0_59_6445)">
<path d="M23.5921 15.6915H22.2756V14.375C22.2756 14.0115 21.9809 13.7168 21.6173 13.7168C21.2538 13.7168 20.9591 14.0115 20.9591 14.375V15.6915H19.6426C19.2791 15.6915 18.9844 15.9862 18.9844 16.3498C18.9844 16.7133 19.2791 17.008 19.6426 17.008H20.9591V18.3245C20.9591 18.688 21.2538 18.9827 21.6173 18.9827C21.9809 18.9827 22.2756 18.688 22.2756 18.3245V17.008H23.5921C23.9556 17.008 24.2503 16.7133 24.2503 16.3498C24.2503 15.9862 23.9556 15.6915 23.5921 15.6915Z" fill="white"/>
<path d="M14.3792 16.3511C16.5604 16.3511 18.3286 14.5828 18.3286 12.4016C18.3286 10.2204 16.5604 8.45215 14.3792 8.45215C12.1979 8.45215 10.4297 10.2204 10.4297 12.4016C10.4297 14.5828 12.1979 16.3511 14.3792 16.3511Z" fill="white"/>
<path d="M14.3773 17.667C11.107 17.6706 8.45677 20.3208 8.45312 23.5912C8.45312 23.9547 8.74782 24.2494 9.11136 24.2494H19.6433C20.0068 24.2494 20.3015 23.9547 20.3015 23.5912C20.2979 20.3208 17.6477 17.6706 14.3773 17.667Z" fill="white"/>
</g>
<defs>
<clipPath id="clip0_59_6445">
<rect width="15.7979" height="15.7979" fill="white" transform="translate(8.45312 8.45215)"/>
</clipPath>
</defs>
</svg>
