<svg width="33" height="33" viewBox="0 0 33 33" fill="none" xmlns="http://www.w3.org/2000/svg">
<rect x="0.554688" y="0.552734" width="31.5957" height="31.5957" rx="7.02128" fill="white" fill-opacity="0.2"/>
<g clip-path="url(#clip0_59_6461)">
<path d="M20.9598 8.45215H11.7443C10.8715 8.45215 10.0343 8.7989 9.4171 9.41613C8.79988 10.0333 8.45312 10.8705 8.45312 11.7434V11.7434C8.45313 12.2671 8.66118 12.7694 9.03151 13.1397C9.40185 13.5101 9.90413 13.7181 10.4279 13.7181H22.2763C22.7769 13.7242 23.2608 13.538 23.6282 13.1979C23.9956 12.8578 24.2185 12.3898 24.251 11.8902C24.2704 11.4459 24.1996 11.0023 24.0429 10.5861C23.8863 10.1699 23.647 9.78969 23.3394 9.46845C23.0319 9.14721 22.6625 8.89155 22.2536 8.71689C21.8446 8.54223 21.4045 8.45217 20.9598 8.45215V8.45215Z" fill="white"/>
<path d="M22.9364 15.0342H9.77153C9.59695 15.0342 9.42952 15.1035 9.30608 15.227C9.18263 15.3504 9.11328 15.5178 9.11328 15.6924V20.9584C9.11433 21.8309 9.46141 22.6675 10.0784 23.2845C10.6954 23.9015 11.5319 24.2486 12.4045 24.2496H20.3034C21.176 24.2486 22.0125 23.9015 22.6295 23.2845C23.2465 22.6675 23.5936 21.8309 23.5947 20.9584V15.6924C23.5947 15.5178 23.5253 15.3504 23.4019 15.227C23.2784 15.1035 23.111 15.0342 22.9364 15.0342ZM18.3287 18.3254H14.3792C14.2047 18.3254 14.0372 18.2561 13.9138 18.1326C13.7903 18.0092 13.721 17.8417 13.721 17.6672C13.721 17.4926 13.7903 17.3252 13.9138 17.2017C14.0372 17.0783 14.2047 17.0089 14.3792 17.0089H18.3287C18.5033 17.0089 18.6707 17.0783 18.7942 17.2017C18.9176 17.3252 18.987 17.4926 18.987 17.6672C18.987 17.8417 18.9176 18.0092 18.7942 18.1326C18.6707 18.2561 18.5033 18.3254 18.3287 18.3254Z" fill="white"/>
</g>
<defs>
<clipPath id="clip0_59_6461">
<rect width="15.7979" height="15.7979" fill="white" transform="translate(8.45312 8.45215)"/>
</clipPath>
</defs>
</svg>
