<svg width="33" height="33" viewBox="0 0 33 33" fill="none" xmlns="http://www.w3.org/2000/svg">
<rect x="0.554688" y="0.552734" width="31.5957" height="31.5957" rx="7.02128" fill="white" fill-opacity="0.2"/>
<g clip-path="url(#clip0_61_6617)">
<path d="M16.3792 16.3511C18.5604 16.3511 20.3286 14.5828 20.3286 12.4016C20.3286 10.2204 18.5604 8.45215 16.3792 8.45215C14.1979 8.45215 12.4297 10.2204 12.4297 12.4016C12.4297 14.5828 14.1979 16.3511 16.3792 16.3511Z" fill="white"/>
<path d="M16.3773 17.667C13.107 17.6706 10.4568 20.3208 10.4531 23.5912C10.4531 23.9547 10.7478 24.2494 11.1114 24.2494H21.6433C22.0068 24.2494 22.3015 23.9547 22.3015 23.5912C22.2979 20.3208 19.6477 17.6706 16.3773 17.667Z" fill="white"/>
</g>
<defs>
<clipPath id="clip0_61_6617">
<rect width="15.7979" height="15.7979" fill="white" transform="translate(8.45312 8.45215)"/>
</clipPath>
</defs>
</svg>
