<svg width="32" height="32" viewBox="0 0 32 32" fill="none" xmlns="http://www.w3.org/2000/svg">
<rect width="32" height="32" rx="3" fill="#F1F2F4"/>
<path d="M22 9H10C9.44772 9 9 9.44772 9 10V14C9 14.5523 9.44772 15 10 15H22C22.5523 15 23 14.5523 23 14V10C23 9.44772 22.5523 9 22 9Z" fill="#939AAD"/>
<path d="M22 9H18C17.4477 9 17 9.44772 17 10V14C17 14.5523 17.4477 15 18 15H22C22.5523 15 23 14.5523 23 14V10C23 9.44772 22.5523 9 22 9Z" fill="#939AAD"/>
<path d="M22 17H18C17.4477 17 17 17.4477 17 18V22C17 22.5523 17.4477 23 18 23H22C22.5523 23 23 22.5523 23 22V18C23 17.4477 22.5523 17 22 17Z" fill="#939AAD"/>
<path d="M22 17H10C9.44772 17 9 17.4477 9 18V22C9 22.5523 9.44772 23 10 23H22C22.5523 23 23 22.5523 23 22V18C23 17.4477 22.5523 17 22 17Z" fill="#939AAD"/>
</svg>
