<svg width="60" height="60" viewBox="0 0 60 60" fill="none" xmlns="http://www.w3.org/2000/svg">
<circle cx="30" cy="30" r="30" fill="#D11C1C"/>
<path fill-rule="evenodd" clip-rule="evenodd" d="M44.4322 18.3087C45.1893 17.5518 45.1893 16.3246 44.4322 15.5677C43.6754 14.8108 42.4481 14.8108 41.6914 15.5677L30 27.259L18.3087 15.5677C17.5518 14.8108 16.3246 14.8108 15.5677 15.5677C14.8108 16.3246 14.8108 17.5518 15.5677 18.3087L27.259 30L15.5677 41.6913C14.8108 42.4484 14.8108 43.6753 15.5677 44.4324C16.3246 45.1891 17.5518 45.1891 18.3087 44.4324L30 32.741L41.6914 44.4324C42.4481 45.1891 43.6754 45.1891 44.4322 44.4324C45.1893 43.6753 45.1893 42.4484 44.4322 41.6913L32.741 30L44.4322 18.3087Z" fill="white"/>
</svg>
